# Blender 4.0.2
# www.blender.org
o Cube
v 1.241000 -0.107547 -1.250000
v 1.250000 -0.107547 -1.241000
v 1.241000 -0.116547 -1.241000
v 1.245494 -0.107547 -1.248798
v 1.241000 -0.112041 -1.248798
v 1.245304 -0.111851 -1.247630
v 1.248798 -0.112041 -1.241000
v 1.248798 -0.107547 -1.245494
v 1.247630 -0.111851 -1.245304
v 1.241000 -0.115345 -1.245494
v 1.245494 -0.115345 -1.241000
v 1.245304 -0.114177 -1.245304
v 1.159146 0.034394 -1.168146
v 1.168146 0.034394 -1.159146
v 1.177146 0.025394 -1.159146
v 1.159146 0.025394 -1.177146
v 1.163563 0.034394 -1.166810
v 1.159146 0.029976 -1.169481
v 1.164241 0.029807 -1.167758
v 1.169481 0.029976 -1.159146
v 1.166810 0.034394 -1.163563
v 1.167758 0.029807 -1.164241
v 1.174475 0.025394 -1.167980
v 1.172728 0.026729 -1.159146
v 1.170241 0.026807 -1.165725
v 1.159146 0.026729 -1.172728
v 1.167980 0.025394 -1.174475
v 1.165724 0.026807 -1.170241
v 1.250000 -0.107547 1.241000
v 1.241000 -0.107547 1.250000
v 1.241000 -0.116547 1.241000
v 1.248798 -0.107547 1.245494
v 1.248798 -0.112041 1.241000
v 1.247630 -0.111851 1.245304
v 1.241000 -0.112041 1.248798
v 1.245494 -0.107547 1.248798
v 1.245304 -0.111851 1.247630
v 1.245494 -0.115345 1.241000
v 1.241000 -0.115345 1.245494
v 1.245304 -0.114177 1.245304
v 1.159146 0.034394 1.168146
v 1.159146 0.025394 1.177146
v 1.177146 0.025394 1.159146
v 1.168146 0.034394 1.159146
v 1.159146 0.029976 1.169481
v 1.163563 0.034394 1.166810
v 1.164241 0.029807 1.167758
v 1.167980 0.025394 1.174475
v 1.159146 0.026729 1.172728
v 1.165725 0.026807 1.170241
v 1.172728 0.026729 1.159146
v 1.174475 0.025394 1.167980
v 1.170241 0.026807 1.165724
v 1.166810 0.034394 1.163563
v 1.169481 0.029976 1.159146
v 1.167758 0.029807 1.164241
v -1.241000 -0.107547 -1.250000
v -1.241000 -0.116547 -1.241000
v -1.250000 -0.107547 -1.241000
v -1.241000 -0.112041 -1.248798
v -1.245494 -0.107547 -1.248798
v -1.245304 -0.111851 -1.247630
v -1.245494 -0.115345 -1.241000
v -1.241000 -0.115345 -1.245494
v -1.245304 -0.114177 -1.245304
v -1.248798 -0.107547 -1.245494
v -1.248798 -0.112041 -1.241000
v -1.247630 -0.111851 -1.245304
v -1.168146 0.034394 -1.159146
v -1.159146 0.034394 -1.168146
v -1.159146 0.025394 -1.177146
v -1.177146 0.025394 -1.159146
v -1.166810 0.034394 -1.163563
v -1.169481 0.029976 -1.159146
v -1.167758 0.029807 -1.164241
v -1.159146 0.029976 -1.169481
v -1.163563 0.034394 -1.166810
v -1.164241 0.029807 -1.167758
v -1.167980 0.025394 -1.174475
v -1.159146 0.026729 -1.172728
v -1.165725 0.026807 -1.170241
v -1.172728 0.026729 -1.159146
v -1.174475 0.025394 -1.167980
v -1.170241 0.026807 -1.165724
v -1.250000 -0.107547 1.241000
v -1.241000 -0.116547 1.241000
v -1.241000 -0.107547 1.250000
v -1.248798 -0.112041 1.241000
v -1.248798 -0.107547 1.245494
v -1.247630 -0.111851 1.245304
v -1.241000 -0.115345 1.245494
v -1.245494 -0.115345 1.241000
v -1.245304 -0.114177 1.245304
v -1.245494 -0.107547 1.248798
v -1.241000 -0.112041 1.248798
v -1.245304 -0.111851 1.247630
v -1.168146 0.034394 1.159146
v -1.177146 0.025394 1.159146
v -1.159146 0.025394 1.177146
v -1.159146 0.034394 1.168146
v -1.169481 0.029976 1.159146
v -1.166810 0.034394 1.163563
v -1.167758 0.029807 1.164241
v -1.174475 0.025394 1.167980
v -1.172728 0.026729 1.159146
v -1.170241 0.026807 1.165725
v -1.159146 0.026729 1.172728
v -1.167980 0.025394 1.174475
v -1.165724 0.026807 1.170241
v -1.163563 0.034394 1.166810
v -1.159146 0.029976 1.169481
v -1.164241 0.029807 1.167758
v -1.241000 0.025394 -1.241000
v -1.241000 0.016394 -1.250000
v -1.250000 0.016394 -1.241000
v -1.241000 0.024059 -1.245417
v -1.245417 0.024059 -1.241000
v -1.245278 0.023059 -1.245278
v -1.245417 0.016394 -1.248665
v -1.241000 0.020811 -1.248665
v -1.245278 0.020672 -1.247665
v -1.248665 0.020811 -1.241000
v -1.248665 0.016394 -1.245418
v -1.247665 0.020672 -1.245279
v -1.250000 0.016394 1.241000
v -1.241000 0.016394 1.250000
v -1.241000 0.025394 1.241000
v -1.248798 0.016394 1.245494
v -1.248798 0.020888 1.241000
v -1.247630 0.020698 1.245304
v -1.241000 0.020888 1.248798
v -1.245494 0.016394 1.248798
v -1.245304 0.020698 1.247630
v -1.245494 0.024192 1.241000
v -1.241000 0.024192 1.245494
v -1.245304 0.023024 1.245304
v 1.241000 0.025394 -1.241000
v 1.250000 0.016394 -1.241000
v 1.241000 0.016394 -1.250000
v 1.245417 0.024059 -1.241000
v 1.241000 0.024059 -1.245417
v 1.245278 0.023059 -1.245278
v 1.248665 0.016394 -1.245417
v 1.248665 0.020811 -1.241000
v 1.247665 0.020672 -1.245278
v 1.241000 0.020811 -1.248665
v 1.245418 0.016394 -1.248665
v 1.245279 0.020672 -1.247665
v 1.250000 0.016394 1.241000
v 1.241000 0.025394 1.241000
v 1.241000 0.016394 1.250000
v 1.248798 0.020888 1.241000
v 1.248798 0.016394 1.245494
v 1.247630 0.020698 1.245304
v 1.241000 0.024192 1.245494
v 1.245494 0.024192 1.241000
v 1.245304 0.023024 1.245304
v 1.245494 0.016394 1.248798
v 1.241000 0.020888 1.248798
v 1.245304 0.020698 1.247630
v -1.168146 0.053166 -1.159146
v -1.159146 0.062166 -1.159146
v -1.159146 0.053166 -1.168146
v -1.166943 0.057660 -1.159146
v -1.166943 0.053166 -1.163640
v -1.165776 0.057470 -1.163450
v -1.159146 0.060964 -1.163640
v -1.163640 0.060964 -1.159146
v -1.163450 0.059796 -1.163450
v -1.163640 0.053166 -1.166943
v -1.159146 0.057660 -1.166943
v -1.163450 0.057470 -1.165775
v -1.168146 0.053166 1.159146
v -1.159146 0.053166 1.168146
v -1.159146 0.062166 1.159146
v -1.166943 0.053166 1.163640
v -1.166943 0.057660 1.159146
v -1.165776 0.057470 1.163450
v -1.159146 0.057660 1.166943
v -1.163640 0.053166 1.166943
v -1.163450 0.057470 1.165776
v -1.163640 0.060964 1.159146
v -1.159146 0.060964 1.163640
v -1.163450 0.059796 1.163450
v 1.159146 0.053166 -1.168146
v 1.159146 0.062166 -1.159146
v 1.168146 0.053166 -1.159146
v 1.159146 0.057660 -1.166943
v 1.163640 0.053166 -1.166943
v 1.163450 0.057470 -1.165776
v 1.163640 0.060964 -1.159146
v 1.159146 0.060964 -1.163640
v 1.163450 0.059796 -1.163450
v 1.166943 0.053166 -1.163640
v 1.166943 0.057660 -1.159146
v 1.165775 0.057470 -1.163450
v 1.159146 0.053166 1.168146
v 1.168146 0.053166 1.159146
v 1.159146 0.062166 1.159146
v 1.163640 0.053166 1.166943
v 1.159146 0.057660 1.166943
v 1.163450 0.057470 1.165776
v 1.166943 0.057660 1.159146
v 1.166943 0.053166 1.163640
v 1.165776 0.057470 1.163450
v 1.159146 0.060964 1.163640
v 1.163640 0.060964 1.159146
v 1.163450 0.059796 1.163450
vn -0.0000 1.0000 -0.0000
vn -0.0000 -0.0000 1.0000
vn -1.0000 -0.0000 -0.0000
vn -0.0000 -1.0000 -0.0000
vn 1.0000 -0.0000 -0.0000
vn -0.0000 -0.0000 -1.0000
vn 0.5067 0.0009 -0.8621
vn 0.4473 -0.4473 -0.7744
vn -0.0000 -0.4998 -0.8661
vn 0.8621 0.0009 -0.5067
vn 0.7745 -0.4473 -0.4473
vn 0.8661 -0.4998 -0.0000
vn 0.4998 -0.8661 -0.0000
vn 0.4474 -0.7744 -0.4473
vn -0.0000 -0.8661 -0.4998
vn 0.5067 -0.0061 -0.8621
vn 0.4591 0.5083 -0.7286
vn -0.0000 0.5137 -0.8580
vn 0.8621 -0.0061 -0.5067
vn 0.7286 0.5083 -0.4591
vn 0.8580 0.5137 -0.0000
vn 0.5137 0.8580 -0.0000
vn 0.4190 0.8686 -0.2644
vn 0.2643 0.8686 -0.4190
vn -0.0000 0.8580 -0.5137
vn 0.8661 -0.0000 0.4998
vn 0.7745 -0.4473 0.4473
vn 0.4998 -0.0000 0.8661
vn 0.4473 -0.4473 0.7744
vn -0.0000 -0.4998 0.8661
vn -0.0000 -0.8661 0.4998
vn 0.4474 -0.7744 0.4473
vn -0.0000 0.5137 0.8580
vn 0.4591 0.5083 0.7286
vn 0.5067 -0.0062 0.8621
vn -0.0000 0.8580 0.5137
vn 0.2644 0.8686 0.4190
vn 0.4190 0.8686 0.2643
vn 0.7286 0.5083 0.4591
vn 0.8621 -0.0061 0.5067
vn -0.4473 -0.4473 -0.7745
vn -0.5067 0.0009 -0.8621
vn -0.4474 -0.7744 -0.4474
vn -0.4998 -0.8661 -0.0000
vn -0.8661 -0.4998 -0.0000
vn -0.7744 -0.4473 -0.4473
vn -0.8621 0.0010 -0.5067
vn -0.8621 -0.0061 -0.5067
vn -0.7286 0.5083 -0.4591
vn -0.8580 0.5137 -0.0000
vn -0.5067 -0.0061 -0.8621
vn -0.4591 0.5083 -0.7286
vn -0.2644 0.8686 -0.4190
vn -0.4190 0.8686 -0.2643
vn -0.5137 0.8580 -0.0000
vn -0.7745 -0.4473 0.4473
vn -0.8661 -0.0000 0.4998
vn -0.4474 -0.7744 0.4473
vn -0.4474 -0.4473 0.7744
vn -0.4998 -0.0000 0.8661
vn -0.7286 0.5083 0.4591
vn -0.8621 -0.0062 0.5067
vn -0.4190 0.8686 0.2644
vn -0.2643 0.8686 0.4190
vn -0.4591 0.5083 0.7286
vn -0.5067 -0.0061 0.8621
vn -0.4408 0.7820 -0.4408
vn -0.5068 0.8621 -0.0000
vn -0.4408 0.4408 -0.7820
vn -0.8621 0.0009 -0.5068
vn -0.7819 0.4408 -0.4408
vn -0.8621 0.5067 -0.0000
vn -0.7745 0.4473 0.4473
vn -0.8621 0.5067 -0.0001
vn -0.4473 0.4473 0.7744
vn -0.0000 0.4998 0.8661
vn -0.0000 0.8661 0.4998
vn -0.4474 0.7744 0.4473
vn -0.5068 0.8621 -0.0001
vn 0.5067 0.8621 -0.0000
vn 0.4408 0.7820 -0.4408
vn 0.8621 0.5067 -0.0000
vn 0.7820 0.4408 -0.4408
vn 0.5068 0.0009 -0.8621
vn 0.4408 0.4408 -0.7819
vn 0.8621 0.5068 -0.0001
vn 0.7744 0.4473 0.4473
vn 0.5068 0.8621 -0.0001
vn 0.4474 0.7744 0.4473
vn 0.4474 0.4473 0.7744
vn -0.8661 0.4998 -0.0000
vn -0.7744 0.4473 -0.4473
vn -0.4998 0.8661 -0.0000
vn -0.4473 0.7744 -0.4473
vn -0.0000 0.8661 -0.4998
vn -0.0000 0.4998 -0.8661
vn -0.4474 0.4473 -0.7744
vn -0.7744 0.4473 0.4473
vn -0.4473 0.7744 0.4473
vn 0.4473 0.4473 -0.7745
vn 0.4473 0.7744 -0.4473
vn 0.4998 0.8661 -0.0000
vn 0.8661 0.4998 -0.0000
vn 0.7744 0.4473 -0.4473
vn 0.5067 -0.0061 0.8621
vn 0.4473 0.4473 0.7744
vn 0.8621 -0.0062 0.5067
vn 0.4473 0.7744 0.4473
vt 0.016404 0.984895
vt 0.018171 0.985429
vt 0.481829 0.985429
vt 0.483596 0.984895
vt 0.484895 0.983596
vt 0.498200 0.998200
vt 0.001800 0.998200
vt 0.626462 0.001800
vt 0.626462 0.465458
vt 0.622707 0.465458
vt 0.622707 0.001800
vt 0.633816 0.001800
vt 0.633816 0.465458
vt 0.630062 0.465458
vt 0.630062 0.001800
vt 0.484895 0.983596
vt 0.485429 0.981829
vt 0.485429 0.518171
vt 0.484895 0.516404
vt 0.483596 0.515105
vt 0.498200 0.501800
vt 0.001800 0.498200
vt 0.001800 0.001800
vt 0.498200 0.001800
vt 0.498200 0.498200
vt 0.558576 0.498200
vt 0.558576 0.001800
vt 0.583364 0.001800
vt 0.583365 0.498200
vt 0.501800 0.965458
vt 0.501800 0.501800
vt 0.965458 0.501800
vt 0.965458 0.965458
vt 0.641171 0.001800
vt 0.641171 0.465458
vt 0.637416 0.465458
vt 0.637416 0.001800
vt 0.530188 0.498200
vt 0.530188 0.001800
vt 0.554976 0.001800
vt 0.554976 0.498200
vt 0.501800 0.498200
vt 0.501800 0.001800
vt 0.526588 0.001800
vt 0.526588 0.498200
vt 0.483596 0.515105
vt 0.481829 0.514571
vt 0.018171 0.514571
vt 0.016404 0.515105
vt 0.015105 0.516404
vt 0.001800 0.501800
vt 0.015105 0.516404
vt 0.014571 0.518171
vt 0.014571 0.981829
vt 0.015105 0.983596
vt 0.016404 0.984895
vt 0.619107 0.001800
vt 0.619107 0.465458
vt 0.615353 0.465458
vt 0.615353 0.001800
vt 0.611753 0.001800
vt 0.611753 -0.000000
vt 0.612613 -0.000000
vt 0.613553 0.001800
vt 0.583365 0.500000
vt 0.583365 0.499099
vt 0.584225 0.499061
vt 0.584225 0.500000
vt 0.585165 0.498200
vt 0.000000 0.498200
vt 0.000901 0.498200
vt 0.000939 0.499061
vt 0.000474 0.499061
vt 0.001800 0.499099
vt 0.001800 0.500000
vt 0.000000 0.500000
vt 0.584690 0.499061
vt 0.619107 0.000916
vt 0.620025 0.000781
vt 0.619991 0.001800
vt 0.619107 -0.000000
vt 0.620025 -0.000000
vt 0.642054 0.465458
vt 0.642088 0.467258
vt 0.641171 0.467258
vt 0.642971 0.465458
vt 0.642688 0.466774
vt 0.642971 0.467225
vt 0.483145 0.983629
vt 0.484048 0.983145
vt 0.481829 0.983629
vt 0.620907 0.001800
vt 0.620907 0.000484
vt 0.620625 -0.000419
vt 0.583365 0.000901
vt 0.584225 0.000939
vt 0.585164 0.001800
vt 0.583364 -0.000000
vt 0.584225 -0.000000
vt 0.528388 0.498200
vt 0.527449 0.500000
vt 0.526588 0.500000
vt 0.001800 0.000000
vt 0.001800 0.000901
vt 0.000939 0.000939
vt 0.000000 0.000000
vt 0.000901 0.001800
vt 0.000000 0.001800
vt 0.000474 0.000939
vt 0.584690 0.000939
vt 0.627345 0.465458
vt 0.627379 0.466477
vt 0.626462 0.466342
vt 0.628262 0.465458
vt 0.627979 0.466774
vt 0.628262 0.467225
vt 0.484048 0.516855
vt 0.483145 0.515952
vt 0.484546 0.518171
vt 0.483629 0.518171
vt 0.483552 0.517152
vt 0.641171 -0.000000
vt 0.642088 0.000781
vt 0.642971 0.001800
vt 0.626462 0.467258
vt 0.627379 0.467181
vt 0.482848 0.516448
vt 0.483145 0.515952
vt 0.484048 0.516855
vt 0.483552 0.517152
vt 0.611753 0.498200
vt 0.613553 0.498200
vt 0.613553 0.499061
vt 0.611753 0.500000
vt 0.498200 0.500000
vt 0.498200 0.499099
vt 0.499061 0.499061
vt 0.499061 0.500000
vt 0.499099 0.498200
vt 0.500000 0.498200
vt 0.500000 0.499061
vt 0.554976 0.000901
vt 0.556776 0.000939
vt 0.556776 0.001800
vt 0.554976 -0.000000
vt 0.556776 -0.000000
vt 0.633816 -0.000000
vt 0.634733 -0.000000
vt 0.635616 0.001800
vt 0.619107 0.467258
vt 0.619107 0.466342
vt 0.620025 0.466477
vt 0.620025 0.467258
vt 0.619991 0.465458
vt 0.620907 0.465458
vt 0.620907 0.466774
vt 0.620907 0.467225
vt 0.620907 0.468524
vt 0.620625 0.467677
vt 0.015454 0.981829
vt 0.015952 0.983145
vt 0.016371 0.981829
vt 0.016371 0.983629
vt 0.556776 0.498200
vt 0.556776 0.499061
vt 0.554976 0.499099
vt 0.500000 0.001800
vt 0.499099 0.001800
vt 0.499061 0.000939
vt 0.500000 0.000939
vt 0.498200 0.000901
vt 0.498200 0.000000
vt 0.499061 0.000000
vt 0.526588 0.000000
vt 0.528388 0.000939
vt 0.528388 0.001800
vt 0.554976 0.500000
vt 0.556776 0.500000
vt 0.634700 0.465458
vt 0.634733 0.466477
vt 0.633816 0.467258
vt 0.635616 0.465458
vt 0.635333 0.466774
vt 0.635616 0.467225
vt 0.016855 0.515952
vt 0.015952 0.516855
vt 0.018171 0.515454
vt 0.018171 0.516371
vt 0.017152 0.516448
vt 0.626462 0.000916
vt 0.627379 0.000781
vt 0.628262 0.001800
vt 0.626462 -0.000000
vt 0.627379 0.000078
vt 0.016448 0.517152
vt 0.015952 0.516855
vt 0.017152 0.516448
vt 0.001800 1.000000
vt 0.000944 1.000000
vt -0.000000 0.998200
vt 0.586081 0.498200
vt 0.586109 0.499056
vt 0.585165 0.499056
vt 0.586964 0.498200
vt 0.586965 0.500000
vt 0.530188 0.000000
vt 0.530188 0.000916
vt 0.529333 0.000944
vt 0.529332 0.000467
vt 0.529305 0.001800
vt 0.528388 0.001800
vt 0.528388 0.000000
vt 0.586109 0.499533
vt 0.530188 0.499099
vt 0.529327 0.499061
vt 0.529289 0.498200
vt 0.530188 0.500000
vt 0.529327 0.500000
vt 0.500000 0.001800
vt 0.500939 0.000000
vt 0.501800 0.000000
vt 0.001800 0.500000
vt 0.001800 0.500901
vt 0.000000 0.500939
vt 0.000000 0.501800
vt 0.528388 0.499061
vt 0.500000 0.998200
vt 0.500000 0.999056
vt 0.498200 1.000000
vt 0.556776 0.498200
vt 0.557693 0.498200
vt 0.557721 0.499056
vt 0.556776 0.499056
vt 0.558576 0.499083
vt 0.558576 0.500000
vt 0.557721 0.500000
vt 0.586965 0.001800
vt 0.586081 0.001800
vt 0.586109 -0.000000
vt 0.586964 -0.000000
vt 0.585165 0.001800
vt 0.585165 -0.000000
vt 0.557678 0.001800
vt 0.557716 0.000939
vt 0.558576 0.000901
vt 0.556776 0.001800
vt 0.556776 0.000939
vt 0.498200 0.500901
vt 0.500000 0.500939
vt 0.500000 0.501800
vt 0.498200 0.500000
vt 0.500000 0.500000
vt 0.501800 0.500000
vt 0.500939 0.500000
vt 0.500000 0.498200
vt 0.558576 -0.000000
vt 0.557716 -0.000000
vt 0.628262 0.001800
vt 0.628262 0.000939
vt 0.630062 -0.000000
vt 0.500000 0.965458
vt 0.500901 0.965458
vt 0.500939 0.966319
vt 0.500000 0.966319
vt 0.501800 0.966357
vt 0.501800 0.967258
vt 0.500939 0.967258
vt 0.615353 0.466357
vt 0.613553 0.466319
vt 0.613553 0.465458
vt 0.615353 0.467258
vt 0.613553 0.467258
vt 0.630062 0.467258
vt 0.629201 0.467258
vt 0.622707 -0.000000
vt 0.622707 0.000901
vt 0.621846 0.000939
vt 0.621846 -0.000000
vt 0.620907 0.001800
vt 0.501800 0.500000
vt 0.501800 0.500901
vt 0.500939 0.500939
vt 0.500939 0.500474
vt 0.500901 0.501800
vt 0.500000 0.501800
vt 0.621381 0.000939
vt 0.613553 0.001800
vt 0.613553 0.000939
vt 0.615353 0.000901
vt 0.965458 0.967258
vt 0.965458 0.966357
vt 0.966319 0.966319
vt 0.966319 0.967258
vt 0.966357 0.965458
vt 0.967258 0.965458
vt 0.967258 0.966319
vt 0.637416 0.467258
vt 0.635616 0.466319
vt 0.615353 -0.000000
vt 0.613553 -0.000000
vt 0.622707 0.466357
vt 0.621846 0.466319
vt 0.622707 0.467258
vt 0.621846 0.467258
vt 0.635616 0.001800
vt 0.636555 -0.000000
vt 0.637416 -0.000000
vt 0.967258 0.501800
vt 0.966357 0.501800
vt 0.966319 0.500939
vt 0.967258 0.500000
vt 0.965458 0.500901
vt 0.965458 0.500000
vt 0.966319 0.500474
vt 0.621381 0.466319
vt 0.000000 0.998200
vt 0.498200 1.000000
vt 0.001800 0.500901
vt 0.015454 0.518171
vt 0.016371 0.518171
vt 0.018171 0.983629
vt 0.481829 0.515454
vt 0.481829 0.516371
vt 0.484546 0.981829
vt 0.483629 0.981829
s 1
f 79/1/1 71/2/1 16/3/1 27/4/1 23/5/1 137/6/1 113/7/1
f 100/8/2 41/9/2 197/10/2 174/11/2
f 69/12/3 97/13/3 173/14/3 161/15/3
f 23/16/1 15/17/1 43/18/1 52/19/1 48/20/1 150/21/1 137/6/1
f 3/22/4 31/23/4 86/24/4 58/25/4
f 138/26/5 149/27/5 29/28/5 2/29/5
f 162/30/1 175/31/1 199/32/1 186/33/1
f 44/34/5 14/35/5 187/36/5 198/37/5
f 125/38/3 115/39/3 59/40/3 85/41/3
f 151/42/2 126/43/2 87/44/2 30/45/2
f 48/46/1 42/47/1 99/48/1 108/49/1 104/50/1 127/51/1 150/21/1
f 104/52/1 98/53/1 72/54/1 83/55/1 79/56/1 113/7/1 127/51/1
f 13/57/6 70/58/6 163/59/6 185/60/6
f 1/61/6 4/62/7 6/63/8 5/64/9
f 4/65/7 8/66/10 9/67/11 6/68/8
f 2/29/5 7/69/12 9/67/11 8/66/10
f 7/70/12 11/71/13 12/72/14 9/73/11
f 3/22/4 10/74/15 12/72/14 11/71/13
f 10/74/15 5/75/9 6/76/8 12/72/14
f 6/68/8 9/67/11 12/77/14
f 13/57/6 17/78/16 19/79/17 18/80/18
f 17/78/16 21/81/19 22/82/20 19/79/17
f 14/35/5 20/83/21 22/84/20 21/85/19
f 20/83/21 24/86/22 25/87/23 22/84/20
f 15/86/1 23/88/1 25/87/23 24/86/22
f 23/5/1 27/4/1 28/89/24 25/90/23
f 16/3/1 26/91/25 28/89/24 27/4/1
f 26/92/25 18/80/18 19/79/17 28/93/24
f 19/79/17 22/82/20 25/94/23 28/93/24
f 29/28/5 32/95/26 34/96/27 33/97/12
f 32/95/26 36/98/28 37/99/29 34/96/27
f 30/45/2 35/100/30 37/101/29 36/102/28
f 35/103/30 39/104/31 40/105/32 37/106/29
f 31/23/4 38/107/13 40/105/32 39/104/31
f 38/107/13 33/108/12 34/109/27 40/105/32
f 34/96/27 37/99/29 40/110/32
f 41/9/2 45/111/33 47/112/34 46/113/35
f 45/111/33 49/114/36 50/115/37 47/112/34
f 42/114/1 48/116/1 50/115/37 49/114/36
f 48/20/1 52/19/1 53/117/38 50/118/37
f 43/18/1 51/119/22 53/117/38 52/19/1
f 51/119/22 55/120/21 56/121/39 53/117/38
f 44/34/5 54/122/40 56/123/39 55/124/21
f 54/125/40 46/113/35 47/112/34 56/126/39
f 47/127/34 50/128/37 53/129/38 56/130/39
f 57/131/6 60/132/9 62/133/41 61/134/42
f 60/135/9 64/136/15 65/137/43 62/138/41
f 58/25/4 63/139/44 65/137/43 64/136/15
f 63/139/44 67/140/45 68/141/46 65/137/43
f 59/40/3 66/142/47 68/143/46 67/144/45
f 66/142/47 61/145/42 62/146/41 68/143/46
f 62/138/41 65/137/43 68/141/46
f 69/12/3 73/147/48 75/148/49 74/149/50
f 73/150/48 77/151/51 78/152/52 75/153/49
f 70/58/6 76/154/18 78/152/52 77/151/51
f 76/154/18 80/155/25 81/156/53 78/152/52
f 71/155/1 79/157/1 81/156/53 80/155/25
f 79/157/1 83/158/1 84/159/54 81/156/53
f 72/54/1 82/160/55 84/161/54 83/55/1
f 82/160/55 74/162/50 75/163/49 84/161/54
f 75/153/49 78/152/52 81/156/53 84/159/54
f 85/41/3 88/164/45 90/165/56 89/166/57
f 88/167/45 92/168/44 93/169/58 90/170/56
f 86/24/4 91/171/31 93/169/58 92/168/44
f 91/171/31 95/172/30 96/173/59 93/169/58
f 87/44/2 94/174/60 96/175/59 95/176/30
f 94/177/60 89/166/57 90/165/56 96/178/59
f 90/170/56 93/169/58 96/173/59
f 97/13/3 101/179/50 103/180/61 102/181/62
f 101/179/50 105/182/55 106/183/63 103/180/61
f 98/182/1 104/184/1 106/183/63 105/182/55
f 104/50/1 108/49/1 109/185/64 106/186/63
f 99/48/1 107/187/36 109/185/64 108/49/1
f 107/187/36 111/188/33 112/189/65 109/185/64
f 100/8/2 110/190/66 112/191/65 111/192/33
f 110/190/66 102/193/62 103/194/61 112/191/65
f 103/195/61 106/196/63 109/185/64 112/197/65
f 113/7/1 116/198/25 118/199/67 117/200/68
f 116/69/25 120/201/18 121/202/69 118/203/67
f 114/204/6 119/205/42 121/202/69 120/201/18
f 119/206/42 123/207/70 124/208/71 121/209/69
f 115/39/3 122/210/72 124/208/71 123/207/70
f 122/210/72 117/211/68 118/212/67 124/208/71
f 118/203/67 121/202/69 124/213/71
f 125/38/3 128/214/57 130/215/73 129/216/74
f 128/214/57 132/217/60 133/218/75 130/215/73
f 126/43/2 131/219/76 133/220/75 132/221/60
f 131/222/76 135/223/77 136/224/78 133/76/75
f 127/51/1 134/225/79 136/224/78 135/223/77
f 134/100/79 129/216/74 130/215/73 136/226/78
f 130/215/73 133/218/75 136/226/78
f 137/6/1 140/227/80 142/228/81 141/229/25
f 140/230/80 144/231/82 145/232/83 142/233/81
f 138/26/5 143/234/10 145/232/83 144/231/82
f 143/234/10 147/235/84 148/236/85 145/232/83
f 139/237/6 146/238/18 148/239/85 147/240/84
f 146/238/18 141/241/25 142/242/81 148/239/85
f 142/233/81 145/232/83 148/236/85
f 149/27/5 152/243/86 154/244/87 153/245/26
f 152/243/86 156/246/88 157/247/89 154/244/87
f 150/21/1 155/248/77 157/249/89 156/250/88
f 155/248/77 159/251/76 160/252/90 157/249/89
f 151/42/2 158/253/28 160/254/90 159/255/76
f 158/256/28 153/245/26 154/244/87 160/257/90
f 154/244/87 157/247/89 160/257/90
f 161/15/3 164/258/91 166/259/92 165/260/48
f 164/261/91 168/262/93 169/263/94 166/264/92
f 162/30/1 167/265/95 169/263/94 168/262/93
f 167/265/95 171/266/96 172/267/97 169/263/94
f 163/59/6 170/268/51 172/269/97 171/270/96
f 170/268/51 165/271/48 166/272/92 172/269/97
f 166/264/92 169/263/94 172/267/97
f 173/14/3 176/273/62 178/274/98 177/114/91
f 176/275/62 180/276/66 181/277/75 178/278/98
f 174/11/2 179/279/76 181/277/75 180/276/66
f 179/280/76 183/281/77 184/282/99 181/283/75
f 175/31/1 182/284/93 184/282/99 183/281/77
f 182/284/93 177/285/91 178/252/98 184/282/99
f 178/278/98 181/277/75 184/286/99
f 185/60/6 188/287/96 190/288/100 189/289/16
f 188/290/96 192/291/95 193/292/101 190/293/100
f 186/33/1 191/294/102 193/292/101 192/291/95
f 191/294/102 195/295/103 196/296/104 193/292/101
f 187/36/5 194/297/19 196/298/104 195/182/103
f 194/299/19 189/289/16 190/288/100 196/300/104
f 190/293/100 193/292/101 196/296/104
f 197/10/2 200/301/105 202/302/106 201/155/76
f 200/301/105 204/303/107 205/304/87 202/302/106
f 198/37/5 203/305/103 205/306/87 204/307/107
f 203/308/103 207/309/102 208/310/108 205/311/87
f 199/32/1 206/312/77 208/310/108 207/309/102
f 206/312/77 201/313/76 202/314/106 208/310/108
f 202/302/106 205/304/87 208/315/108
f 115/39/3 125/38/3 129/216/74 122/210/72
f 122/210/72 129/216/74 134/100/79 117/211/68
f 117/316/68 134/225/79 127/51/1 113/7/1
f 139/237/6 114/204/6 120/201/18 146/238/18
f 146/238/18 120/201/18 116/69/25 141/241/25
f 141/317/25 116/198/25 113/7/1 137/6/1
f 1/61/6 139/237/6 147/240/84 4/62/7
f 4/65/7 147/235/84 143/234/10 8/66/10
f 8/66/10 143/234/10 138/26/5 2/29/5
f 125/38/3 85/41/3 89/166/57 128/214/57
f 128/214/57 89/166/57 94/177/60 132/217/60
f 132/221/60 94/174/60 87/44/2 126/43/2
f 29/28/5 149/27/5 153/245/26 32/95/26
f 32/95/26 153/245/26 158/256/28 36/98/28
f 36/102/28 158/253/28 151/42/2 30/45/2
f 59/40/3 115/39/3 123/207/70 66/142/47
f 66/142/47 123/207/70 119/206/42 61/145/42
f 61/134/42 119/205/42 114/204/6 57/131/6
f 30/45/2 87/44/2 95/176/30 35/100/30
f 35/103/30 95/172/30 91/171/31 39/104/31
f 39/104/31 91/171/31 86/24/4 31/23/4
f 2/29/5 29/28/5 33/97/12 7/69/12
f 7/70/12 33/108/12 38/107/13 11/71/13
f 11/71/13 38/107/13 31/23/4 3/22/4
f 126/43/2 151/42/2 159/255/76 131/219/76
f 131/222/76 159/251/76 155/248/77 135/318/77
f 135/318/77 155/248/77 150/21/1 127/51/1
f 85/41/3 59/40/3 67/144/45 88/164/45
f 88/167/45 67/140/45 63/139/44 92/168/44
f 92/168/44 63/139/44 58/25/4 86/24/4
f 57/131/6 1/61/6 5/64/9 60/132/9
f 60/135/9 5/75/9 10/74/15 64/136/15
f 64/136/15 10/74/15 3/22/4 58/25/4
f 149/27/5 138/26/5 144/231/82 152/243/86
f 152/243/86 144/231/82 140/230/80 156/246/88
f 156/250/88 140/227/80 137/6/1 150/21/1
f 72/54/1 98/53/1 105/319/55 82/160/55
f 82/160/55 105/319/55 101/320/50 74/162/50
f 74/149/50 101/182/50 97/13/3 69/12/3
f 16/3/1 71/2/1 80/321/25 26/91/25
f 26/92/25 80/155/25 76/154/18 18/80/18
f 18/80/18 76/154/18 70/58/6 13/57/6
f 99/48/1 42/47/1 49/322/36 107/187/36
f 107/187/36 49/322/36 45/323/33 111/188/33
f 111/192/33 45/114/33 41/9/2 100/8/2
f 43/18/1 15/17/1 24/324/22 51/119/22
f 51/119/22 24/324/22 20/325/21 55/120/21
f 55/124/21 20/86/21 14/35/5 44/34/5
f 161/15/3 173/14/3 177/114/91 164/258/91
f 164/261/91 177/285/91 182/284/93 168/262/93
f 168/262/93 182/284/93 175/31/1 162/30/1
f 185/60/6 163/59/6 171/270/96 188/287/96
f 188/290/96 171/266/96 167/265/95 192/291/95
f 192/291/95 167/265/95 162/30/1 186/33/1
f 174/11/2 197/10/2 201/155/76 179/279/76
f 179/280/76 201/313/76 206/312/77 183/281/77
f 183/281/77 206/312/77 199/32/1 175/31/1
f 198/37/5 187/36/5 195/182/103 203/305/103
f 203/308/103 195/295/103 191/294/102 207/309/102
f 207/309/102 191/294/102 186/33/1 199/32/1
f 69/12/3 161/15/3 165/260/48 73/147/48
f 73/150/48 165/271/48 170/268/51 77/151/51
f 77/151/51 170/268/51 163/59/6 70/58/6
f 187/36/5 14/35/5 21/85/19 194/297/19
f 194/299/19 21/81/19 17/78/16 189/289/16
f 189/289/16 17/78/16 13/57/6 185/60/6
f 44/34/5 198/37/5 204/307/107 54/122/40
f 54/125/40 204/303/107 200/301/105 46/113/35
f 46/113/35 200/301/105 197/10/2 41/9/2
f 173/14/3 97/13/3 102/181/62 176/273/62
f 176/275/62 102/193/62 110/190/66 180/276/66
f 180/276/66 110/190/66 100/8/2 174/11/2
f 114/204/6 139/237/6 1/61/6 57/131/6
